<svg version="1.1" id="block-J" xmlns="http://www.w3.org/2000/svg" xmlns:xlink="http://www.w3.org/1999/xlink" x="0px" y="0px"
     viewBox="0 0 27 27" enable-background="new 0 0 27 27" xml:space="preserve">
    <g>
        <g>
            <g>
                <rect fill="#2F2F2F" width="27" height="27"/>
            </g>
            <g opacity="4.000000e-02">
                <rect fill="#FFFFFF" width="27" height="27"/>
            </g>
        </g>
        <polygon fill="#262626" points="1,26 0,26 0,1 1,1       "/>
        <polygon fill="#212121" points="27,26 0,26 0,27 27,27       "/>
        <polygon fill="#212121" points="27,26 26,26 26,1 27,1       "/>
        <polygon fill="#323232" points="26,1 0,1 0,0 26,0       "/>
        <polygon fill="#252525" points="27,1 26,1 26,0 27,0         "/>
    </g>
    <g>
        <path fill="#fac409" d="M5,26.5c-2.5,0-4.5-2-4.5-4.5V5c0-2.5,2-4.5,4.5-4.5h17c2.5,0,4.5,2,4.5,4.5v17c0,2.5-2,4.5-4.5,4.5H5z"/>
        <path fill="#772a00" d="M22,1c2.2,0,4,1.8,4,4v17c0,2.2-1.8,4-4,4H5c-2.2,0-4-1.8-4-4V5c0-2.2,1.8-4,4-4H22 M22,0H5
            C2.2,0,0,2.2,0,5v17c0,2.8,2.2,5,5,5h17c2.8,0,5-2.2,5-5V5C27,2.2,24.8,0,22,0L22,0z"/>
    </g>
    <path fill="#f47b02" d="M21,19c0,1.1-0.9,2-2,2H8c-1.1,0-2-0.9-2-2V8c0-1.1,0.9-2,2-2h11c1.1,0,2,0.9,2,2V19z"/>
</svg>