<svg version="1.1" id="block-T" xmlns="http://www.w3.org/2000/svg" xmlns:xlink="http://www.w3.org/1999/xlink" x="0px" y="0px"
     viewBox="0 0 27 27" enable-background="new 0 0 27 27" xml:space="preserve">
    <g>
        <path fill="#ecdf09" d="M5,26.5c-2.5,0-4.5-2-4.5-4.5V5c0-2.5,2-4.5,4.5-4.5h17c2.5,0,4.5,2,4.5,4.5v17c0,2.5-2,4.5-4.5,4.5H5z"/>
        <path fill="#7f6b00" d="M22,1c2.2,0,4,1.8,4,4v17c0,2.2-1.8,4-4,4H5c-2.2,0-4-1.8-4-4V5c0-2.2,1.8-4,4-4H22 M22,0H5
            C2.2,0,0,2.2,0,5v17c0,2.8,2.2,5,5,5h17c2.8,0,5-2.2,5-5V5C27,2.2,24.8,0,22,0L22,0z"/>
    </g>
    <path fill="#d5b715" d="M21,19c0,1.1-0.9,2-2,2H8c-1.1,0-2-0.9-2-2V8c0-1.1,0.9-2,2-2h11c1.1,0,2,0.9,2,2V19z"/>
</svg>