<?xml version="1.0" encoding="utf-8"?>
<!-- Generator: Adobe Illustrator 18.1.1, SVG Export Plug-In . SVG Version: 6.00 Build 0)  -->
<svg version="1.1" id="Layer_1" xmlns="http://www.w3.org/2000/svg" xmlns:xlink="http://www.w3.org/1999/xlink" x="0px" y="0px"
	 viewBox="0 0 288 558" enable-background="new 0 0 288 558" xml:space="preserve">
<g>
	<g>
		<path d="M10,557c-5,0-9-4-9-9V10c0-5,4-9,9-9h268c5,0,9,4,9,9v538c0,5-4,9-9,9H10z"/>
		<path fill="#FFFFFF" d="M278,2c4.4,0,8,3.6,8,8v538c0,4.4-3.6,8-8,8H10c-4.4,0-8-3.6-8-8V10c0-4.4,3.6-8,8-8H278 M278,0H10
			C4.5,0,0,4.5,0,10v538c0,5.5,4.5,10,10,10h268c5.5,0,10-4.5,10-10V10C288,4.5,283.5,0,278,0L278,0z"/>
	</g>
	<g>
		<path fill="#2F2F2F" d="M277,551H9c-2.2,0-4-1.8-4-4V9c0-2.2,1.8-4,4-4h268c2.2,0,4,1.8,4,4v538C281,549.2,279.2,551,277,551z"/>
	</g>
</g>
</svg>
