<?xml version="1.0" encoding="utf-8"?>
<!-- Generator: Adobe Illustrator 18.1.1, SVG Export Plug-In . SVG Version: 6.00 Build 0)  -->
<svg version="1.1" id="Layer_1" xmlns="http://www.w3.org/2000/svg" xmlns:xlink="http://www.w3.org/1999/xlink" x="0px" y="0px"
	 viewBox="0 0 85 184" enable-background="new 0 0 85 184" xml:space="preserve">
<path fill="#FFFFFF" d="M85,182H12c-5,0-10-5-10-10V23c0-5,5-8,10-8h5V4.4C17,2.8,19,2,20.6,2h3.8c1,0,1.5,0.2,2,1.1L28,6.3V4.4
	C28,2.8,30.4,2,32.1,2h3.7C37.5,2,38,2.8,38,4.4v3.3c1-0.4,1.9-0.6,2.9-0.8c0.8-0.1,2.1-0.2,3-0.2c0.9,0,1.5,0.1,2,0.1
	c0.6,0,1.1,0.3,1.7,0.4c0.6,0.1,1,0.6,1.5,0.7c0.2-0.1,0.3-0.2,0.5-0.2C50,7.8,50.5,8,50.9,8h4.5c1,0,2,0.1,2.6,1l0.1-0.4l0.1,0.2
	c0.5-0.7,1.2-0.8,2-0.8c0.2,0,0.4,0,0.5,0h4.5c0.2,0,0.4-0.3,0.5-0.3c0,0,0,0,0,0L66,5.9c0.2-1.5,1.5-1.9,3-1.9h3.1
	C73.7,4,74,4.1,74,5.8V8h1.2C76.9,8,77,8.1,77,9.7v2.8c0,0.5,1.1,1.4,0.8,2.4H85v-2h-5.6c-0.1-0.3-0.3-0.5-0.4-0.7c0,0,0,0,0-0.1
	V9.7c0-2.5-0.8-3.5-3-3.7V5.8C76,2.5,74.1,2,72.1,2h-3.1c-2.7,0-4.6,1.4-4.9,3.6c0,0,0,0,0,0.1L64,6h-3.3l-0.3,0l-0.3,0
	c-0.5,0-1.4,0-2.2,0.4C57,6,56,6,55.4,6h-4.5c-0.1,0-0.1,0-0.2-0.1c-0.3-0.1-0.6-0.1-1-0.1c-0.1,0-0.1,0-0.2,0
	c-0.4-0.2-0.8-0.5-1.4-0.6c-0.2,0-0.3-0.1-0.5-0.1c-0.4-0.1-0.9-0.2-1.4-0.3c-0.1,0-0.3,0-0.5,0c-0.5,0-1-0.1-1.7-0.1
	c-1.5,0-2.6,0.1-3.4,0.2C40.4,4.9,40.2,5,40,5V4.4C40,0.6,37.4,0,35.8,0h-3.7c-1.6,0-3.3,0.5-4.5,1.4c-0.8-1-1.8-1.4-3.2-1.4h-3.8
	C17.8,0,15,1.5,15,4.4V13h-3C6.1,13,0,16.7,0,23v149c0,6.1,5.9,12,12,12h73V182z"/>
<path fill="#181818" d="M11,177h74V20H11c-2.2,0-4,1.8-4,4v149C7,175.2,8.8,177,11,177z"/>
<path d="M11,15h74v5H11c-2.2,0-4,1.8-4,4v149c0,2.2,1.8,4,4,4h74v5H11c-5,0-9-4-9-9V24C2,19,6,15,11,15z"/>
<g>
	<path d="M34.8,5.4v19.5h-3.7l-7.7-12.4v12.4h-3.7V5.4h3.8L31.1,18V5.4H34.8 M34.8,2.4h-3.7c-1.7,0-3,1.3-3,3v1.9L26,3.8
		c-0.5-0.9-1.5-1.4-2.6-1.4h-3.8c-1.7,0-3,1.3-3,3v19.5c0,1.7,1.3,3,3,3h3.7c1.7,0,3-1.3,3-3v-1.9l2.2,3.5c0.5,0.9,1.5,1.4,2.5,1.4
		h3.7c1.7,0,3-1.3,3-3V5.4C37.8,3.8,36.5,2.4,34.8,2.4L34.8,2.4z"/>
	<path d="M43,10.6c0.8,0,1.4,0,1.9,0c0.4,0,0.9,0.1,1.3,0.2c0.5,0.1,0.8,0.2,1.1,0.3c0.3,0.2,0.6,0.4,0.8,0.6s0.5,0.6,0.6,0.9
		c0.3,0.8,0.5,1.7,0.5,2.8s-0.2,1.8-0.5,2.4c-0.6,1-1.7,1.5-3.5,1.5h-4.5c0,0.6,0.1,1.1,0.2,1.5s0.3,0.6,0.6,0.8
		c0.3,0.2,0.6,0.3,0.9,0.3c0.3,0,1.2,0.1,2.5,0.1s2.7-0.1,4-0.3v2.5c-0.8,0.3-1.6,0.5-2.4,0.6c-0.8,0.1-1.4,0.1-1.7,0.1
		c-0.3,0-0.7,0-1.1,0c-0.6,0-1.3,0-2,0c-1.8,0-3-0.5-3.6-1.6c-0.7-1.1-1-2.9-1-5.4c0-2.5,0.3-4.2,0.8-5.3c0.5-1,1.5-1.7,3-1.9
		C41.5,10.7,42.2,10.6,43,10.6 M40.8,16.7h3.5c0.8,0,1.2-0.4,1.2-1.1c0-0.9-0.1-1.5-0.4-1.7s-0.7-0.4-1.4-0.4c-0.7,0-1.2,0-1.5,0.1
		c-0.3,0-0.5,0.2-0.8,0.4s-0.4,0.5-0.5,0.9c-0.1,0.4-0.1,0.8-0.1,1.2S40.8,16.6,40.8,16.7 M43,7.6c-1,0-1.8,0.1-2.6,0.2
		c-3,0.5-4.5,2.2-5.1,3.5C34.4,12.9,34,15,34,18c0,3.1,0.5,5.3,1.5,6.9c0.9,1.4,2.6,3.1,6.2,3.1c0.8,0,1.5,0,2.1,0
		c0.5,0,0.9,0,1.2,0c0.3,0,0.9-0.1,1.7-0.1c1.1-0.1,2.2-0.3,3.2-0.7c1.2-0.4,1.9-1.6,1.9-2.8v-2.5c0-0.8-0.3-1.5-0.8-2.1
		c0.1-0.1,0.2-0.2,0.2-0.4c0.6-1,0.9-2.3,0.9-3.9c0-1.4-0.2-2.7-0.7-3.9c-0.3-0.7-0.7-1.4-1.3-2c-0.5-0.4-1-0.8-1.5-1.1
		c-0.6-0.3-1.2-0.5-2-0.7c-0.6-0.1-1.1-0.2-1.7-0.2C44.5,7.7,43.8,7.6,43,7.6L43,7.6z"/>
	<path d="M64.2,10.8l-4.9,7.1l4.7,7h-4.3L57,20.7l-2.6,4.2h-4.5l4.9-7.1l-4.9-7h4.5L57,15l2.7-4.2H64.2 M64.2,7.8h-4.5
		c-1,0-2,0.5-2.5,1.4l-0.1,0.1L57,9.2c-0.5-0.9-1.5-1.4-2.6-1.4h-4.5c-1.1,0-2.1,0.6-2.7,1.6c-0.5,1-0.4,2.2,0.2,3.1l3.7,5.3
		l-3.7,5.4c-0.6,0.9-0.7,2.1-0.2,3.1c0.5,1,1.5,1.6,2.7,1.6h4.5c1,0,2-0.5,2.5-1.4l0.1-0.1l0.1,0.1c0.5,0.9,1.5,1.4,2.5,1.4H64
		c1.1,0,2.1-0.6,2.6-1.6c0.5-1,0.5-2.2-0.2-3.1l-3.6-5.3l3.8-5.4c0.6-0.9,0.7-2.1,0.2-3.1S65.3,7.8,64.2,7.8L64.2,7.8z"/>
	<path d="M71.1,6.8v3.9h3.2v2.8h-3.2v5.7c0,1,0.1,1.6,0.3,2c0.2,0.4,0.5,0.6,0.9,0.8c1.1,0.4,1.7,0.6,1.8,0.6v2.3h-3.2
		c-2.3,0-3.5-1.7-3.5-5.1v-6.2H65v-2.1l2.3-0.8l0.6-3.9H71.1 M71.1,3.8h-3.1c-1.5,0-2.7,1.1-3,2.5l-0.3,2.1l-0.6,0.2
		c-1.2,0.4-2,1.6-2,2.8v2.1c0,1.4,1,2.6,2.3,2.9v3.3c0,7.5,4.9,8.1,6.5,8.1H74c1.7,0,3-1.3,3-3v-2.3c0-1.5-1.1-2.7-2.5-3
		c-0.1,0-0.2-0.1-0.5-0.2c0-0.1,0-0.2,0-0.2v-2.7h0.2c1.7,0,3-1.3,3-3v-2.8c0-1.7-1.3-3-3-3h-0.2V6.8C74.1,5.1,72.7,3.8,71.1,3.8
		L71.1,3.8z"/>
</g>
<path fill="#FFFFFF" d="M19.6,24.9V5.4h3.8L31.1,18V5.4h3.7v19.5h-3.7l-7.7-12.4v12.4H19.6z"/>
<path fill="#FFFFFF" d="M40.8,10.8c0.6-0.1,1.3-0.2,2.1-0.2c0.8,0,1.4,0,1.9,0c0.4,0,0.9,0.1,1.3,0.2c0.5,0.1,0.8,0.2,1.1,0.3
	c0.3,0.2,0.6,0.4,0.8,0.6s0.5,0.6,0.6,0.9c0.3,0.8,0.5,1.7,0.5,2.8s-0.2,1.8-0.5,2.4c-0.6,1-1.7,1.5-3.5,1.5h-4.5
	c0,0.6,0.1,1.1,0.2,1.5s0.3,0.6,0.6,0.8c0.3,0.2,0.6,0.3,0.9,0.3c0.3,0,1.2,0.1,2.5,0.1s2.7-0.1,4-0.3v2.5c-0.8,0.3-1.6,0.5-2.4,0.6
	c-0.8,0.1-1.4,0.1-1.7,0.1c-0.3,0-0.7,0-1.1,0c-0.6,0-1.3,0-2,0c-1.8,0-3-0.5-3.6-1.6c-0.7-1.1-1-2.9-1-5.4c0-2.5,0.3-4.2,0.8-5.3
	C38.4,11.7,39.4,11.1,40.8,10.8z M45.5,15.6c0-0.9-0.1-1.5-0.4-1.7s-0.7-0.4-1.4-0.4c-0.7,0-1.2,0-1.5,0.1c-0.3,0-0.5,0.2-0.8,0.4
	s-0.4,0.5-0.5,0.9c-0.1,0.4-0.1,0.8-0.1,1.2s0,0.6,0,0.7h3.5C45.1,16.7,45.5,16.3,45.5,15.6z"/>
<path fill="#FFFFFF" d="M49.9,24.9l4.9-7.1l-4.9-7h4.5L57,15l2.7-4.2h4.5l-4.9,7.1l4.7,7h-4.3L57,20.7l-2.6,4.2H49.9z"/>
<path fill="#FFFFFF" d="M65,13.6v-2.1l2.3-0.8l0.6-3.9h3.1v3.9h3.2v2.8h-3.2v5.7c0,1,0.1,1.6,0.3,2c0.2,0.4,0.5,0.6,0.9,0.8
	c1.1,0.4,1.7,0.6,1.8,0.6v2.3h-3.2c-2.3,0-3.5-1.7-3.5-5.1v-6.2H65z"/>
</svg>
