<?xml version="1.0" encoding="utf-8"?>
<!-- Generator: Adobe Illustrator 18.1.1, SVG Export Plug-In . SVG Version: 6.00 Build 0)  -->
<svg version="1.1" id="Layer_1" xmlns="http://www.w3.org/2000/svg" xmlns:xlink="http://www.w3.org/1999/xlink" x="0px" y="0px"
	 viewBox="0 0 85 184" enable-background="new 0 0 85 184" xml:space="preserve">
<path fill="#FFFFFF" d="M75,13h-5.6c-0.1-0.2-0.2-0.4-0.3-0.6c0,0,0-0.1-0.1-0.1V9.7c0-2.5-0.8-3.5-3-3.7V5.8C66,2.5,64.1,2,62.1,2
	h-3.1c-2.7,0-4.6,1.4-4.9,3.6L54,6h-3.3c-1.1,0-1.9,0.6-2.6,1.4C47.4,6.6,46.5,6,45.4,6H41c-0.1,0-0.1,0.1-0.2,0.1
	C40.5,6,40.1,6,39.7,6c0,0,0,0-0.1,0c-0.4,0-1-0.6-1.6-0.7c-0.2,0-0.3-0.1-0.5-0.2c-0.4-0.1-0.9-0.2-1.4-0.3c-0.1,0-0.3,0-0.4,0
	c-0.5,0-1-0.1-1.7-0.1c-0.9,0-2.5,0-3.5,0.2C30.3,4.9,30.2,5,30,5V4.4C30,0.6,27.4,0,25.8,0h-3.7c-1.6,0-3.3,0.5-4.5,1.4
	c-0.8-1-1.8-1.4-3.2-1.4h-3.8C7.8,0,5,1.5,5,4.4V13H0v2h7V4.4C7,2.8,9,2,10.6,2h3.8c1,0,1.5,0.2,2,1.1L18,6.3V4.4
	C18,2.8,20.4,2,22.1,2h3.7C27.5,2,28,2.8,28,4.4v3.2c1-0.3,1.9-0.6,2.8-0.7C31.6,6.7,33,6.7,34,6.7c0.9,0,1.5,0.1,2,0.1
	c0.6,0,1.1,0.2,1.7,0.3c0.6,0.1,1.2,0.5,1.7,0.8c0.1-0.1,0.3-0.1,0.4-0.1c0.4,0,0.8,0.2,1.2,0.2h4.5c1,0,2,2.1,2.6,3
	c0.5-0.9,1.6-3,2.7-3h4.5c0.2,0,0.3-0.2,0.5-0.2c0,0,0,0,0,0L56,5.9c0.2-1.5,1.5-1.9,3-1.9h3.1C63.7,4,64,4.1,64,5.8V8h1.2
	C66.9,8,67,8.1,67,9.7v2.8c0,0.5,0.9,1.4,0.7,2.4H75c5,0,8,3,8,8v149c0,5-3,10-8,10H0v2h75c6.3,0,10-6.1,10-12V23
	C85,16.9,81.1,13,75,13z"/>
<path fill="#181818" d="M74,177H0V20h74c2.2,0,4,1.8,4,4v149C78,175.2,76.2,177,74,177z"/>
<path d="M74,15H0v5h74c2.2,0,4,1.8,4,4v149c0,2.2-1.8,4-4,4H0v5h74c5,0,9-4,9-9V24C83,19,79,15,74,15z"/>
<g>
	<path d="M25,5v20h-3.9L13,12.4V25h-3V5h3.4L21,18V5H25 M24.8,2h-3.7C19.4,2,18,3.8,18,5.4v1.9l-2.1-3.7C15.4,2.7,14.4,2,13.4,2H9.6
		C8,2,7,3.8,7,5.4v19.5C7,26.5,8,28,9.6,28h3.7c1.7,0,2.6-1.5,2.6-3.1v-1.9l2.4,3.6c0.5,0.9,1.7,1.5,2.7,1.5h3.7
		c1.7,0,3.2-1.5,3.2-3.1V5.4C28,3.8,26.5,2,24.8,2L24.8,2z"/>
	<path d="M33,10.6c0.8,0,1.4,0,1.9,0c0.4,0,0.9,0.1,1.3,0.2c0.5,0.1,0.8,0.2,1.1,0.3c0.3,0.2,0.6,0.4,0.8,0.6s0.5,0.6,0.6,0.9
		c0.3,0.8,0.5,1.7,0.5,2.8s-0.2,1.7-0.5,2.2c-0.6,1-1.7,1.3-3.5,1.3h-4.5c0,1,0.1,1.3,0.2,1.7s0.3,0.7,0.6,0.9
		c0.3,0.2,0.6,0.3,0.9,0.4c0.3,0,1.2,0.1,2.6,0.1s3-0.1,4-0.3v2.5c-1,0.3-1.6,0.5-2.4,0.6c-0.8,0.1-1.4,0.1-1.7,0.1
		c-0.3,0-0.7,0-1.1,0c-0.6,0-1.3,0-2.1,0c-1.8,0-3-0.5-3.6-1.6c-0.7-1.1-1-2.9-1-5.4c0-2.5,0.3-4.2,0.8-5.3c0.5-1,1.5-1.7,3-1.9
		C31.5,10.7,32.2,10.6,33,10.6 M31,17h3.3c0.8,0,1.2-0.5,1.2-1.2c0-0.9-0.1-1.5-0.4-1.8s-0.7-0.4-1.4-0.4c-0.7,0-1.2,0-1.5,0
		c-0.3,0-0.5,0.2-0.8,0.4s-0.3,0.5-0.4,0.9c-0.1,0.4,0,0.8,0,1.2S31,17,31,17 M33,7.6c-1,0-1.8,0.1-2.6,0.2c-3,0.5-4.5,2.2-5.1,3.5
		C24.4,12.9,24,15,24,18c0,3.1,0.5,5.3,1.5,6.9c0.9,1.4,2.6,3.1,6.2,3.1c0.8,0,1.5,0,2.1,0c0.5,0,0.9,0,1.2,0c0.3,0,0.9-0.1,1.7-0.1
		c1.1-0.1,2.2-0.3,3.2-0.7c1.2-0.4,2-1.6,2-2.8v-2.5c0-0.8-0.3-1.5-0.9-2.1c0.1-0.1,0.1-0.2,0.2-0.4c0.6-1,0.8-2.3,0.8-3.9
		c0-1.4-0.2-2.7-0.7-3.9c-0.3-0.7-0.7-1.4-1.3-2c-0.5-0.4-1-0.8-1.5-1.1c-0.6-0.3-1.2-0.5-2-0.7c-0.6-0.1-1.1-0.2-1.7-0.2
		C34.5,7.7,33.8,7.6,33,7.6L33,7.6z"/>
	<path d="M54.2,11l-4.9,7.1L54,25h-4.3L47,20.8L44.4,25h-4.5l4.9-7l-4.9-7h4.5l2.6,4.2l2.7-4.2H54 M54.2,8h-4.5c-1,0-2,0.4-2.5,1.3
		l-0.1,0.1l-0.1,0C46.5,8.5,45.5,8,44.4,8h-4.5c-1.1,0-2.1,0.5-2.7,1.5c-0.5,1-0.4,2.1,0.2,3l3.7,5.3l-3.7,5.3
		c-0.6,0.9-0.7,2.2-0.2,3.2c0.5,1,1.5,1.7,2.7,1.7h4.5c1,0,2-0.6,2.5-1.5l0.1-0.2l0.1,0.2c0.5,0.9,1.5,1.5,2.5,1.5H54
		c1.1,0,2.1-0.7,2.6-1.7c0.5-1,0.5-2.2-0.2-3.1l-3.6-5.3l3.8-5.4c0.6-0.9,0.7-2,0.2-3S55.3,8,54.2,8L54.2,8z"/>
	<path d="M61,7v4h3v3h-3v5.2c0,1,0.1,1.6,0.3,2c0.2,0.4,0.5,0.6,0.9,0.8c1.1,0.4,1.8,0.6,1.8,0.6V25h-3.2c-2.3,0-3.8-1.8-3.8-5.2V14
		h-2v-2.5l2.3-0.7L57.9,7H61 M61.1,4h-3.1c-1.5,0-2.7,1-3,2.4l-0.3,2.1l-0.6,0.2c-1.2,0.4-2.1,1.5-2.1,2.8v2.1c0,1.4,1,2.6,2,2.9
		v3.3c0,7.5,5.3,8.2,6.8,8.2H64c1.7,0,3-1.5,3-3.1v-2.3c0-1.5-1.1-2.7-2.5-3c-0.1,0-0.2-0.1-0.5-0.2c0-0.1,0-0.2,0-0.2V17h0.2
		c1.7,0,2.8-1.8,2.8-3.4v-2.8C67,9.1,65.9,8,64.2,8H64V6.8C64,5.1,62.7,4,61.1,4L61.1,4z"/>
</g>
<path fill="#FFFFFF" d="M10,25V5h3.4L21,18V5h4v20h-3.9L13,12.4V25H10z"/>
<path fill="#FFFFFF" d="M30.8,10.8c0.6-0.1,1.3-0.2,2.1-0.2c0.8,0,1.4,0,1.9,0c0.4,0,0.9,0.1,1.3,0.2c0.5,0.1,0.8,0.2,1.1,0.3
	c0.3,0.2,0.6,0.4,0.8,0.6s0.5,0.6,0.6,0.9c0.3,0.8,0.5,1.7,0.5,2.8s-0.2,1.7-0.5,2.2c-0.6,1-1.7,1.3-3.5,1.3h-4.5
	c0,1,0.1,1.3,0.2,1.7s0.3,0.7,0.6,0.9c0.3,0.2,0.6,0.3,0.9,0.4c0.3,0,1.2,0.1,2.6,0.1s3-0.1,4-0.3v2.5c-1,0.3-1.6,0.5-2.4,0.6
	c-0.8,0.1-1.4,0.1-1.7,0.1c-0.3,0-0.7,0-1.1,0c-0.6,0-1.3,0-2.1,0c-1.8,0-3-0.5-3.6-1.6c-0.7-1.1-1-2.9-1-5.4c0-2.5,0.3-4.2,0.8-5.3
	C28.4,11.7,29.4,11.1,30.8,10.8z M35.5,15.8c0-0.9-0.1-1.5-0.4-1.8s-0.7-0.4-1.4-0.4c-0.7,0-1.2,0-1.5,0c-0.3,0-0.5,0.2-0.8,0.4
	s-0.3,0.5-0.4,0.9c-0.1,0.4,0,0.8,0,1.2s0,1,0,1h3.3C35.1,17,35.5,16.5,35.5,15.8z"/>
<path fill="#FFFFFF" d="M39.9,25l4.9-7l-4.9-7h4.5l2.6,4.2l2.7-4.2h4.5l-4.9,7.1L54,25h-4.3L47,20.8L44.4,25H39.9z"/>
<path fill="#FFFFFF" d="M55,14v-2.5l2.3-0.7L57.9,7H61v4h3v3h-3v5.2c0,1,0.1,1.6,0.3,2c0.2,0.4,0.5,0.6,0.9,0.8
	c1.1,0.4,1.8,0.6,1.8,0.6V25h-3.2c-2.3,0-3.8-1.8-3.8-5.2V14H55z"/>
</svg>
