<svg id="spaceship_-_grey" data-name="spaceship - grey" xmlns="http://www.w3.org/2000/svg" viewBox="0 0 26 38"><defs><style>.cls-1{fill:#b5bcb5;}.cls-2{fill:#c5cfc6;}.cls-3{fill:#686d68;}.cls-4{opacity:0.2;}</style></defs><title>Spaceship</title><g id="Spaceship_background" data-name="Spaceship background"><path class="cls-1" d="M13,0.36L0,30.45,13,38l13-7.52ZM3,29.45L13,4.36,23,29.45,13,35Z"/><polygon class="cls-2" points="13 4.36 3 29.45 13 34.98 23 29.45 13 4.36"/></g><polygon class="cls-3" points="16 14.15 13 6.11 10 14.15 13 12.39 16 14.15"/><polygon id="Exhaust" class="cls-3" points="9.41 30.9 12.79 32.98 16 31 16 34 12.79 35.98 9.31 33.9 9.41 30.9"/><polygon id="Exhaust_shadow" data-name="Exhaust shadow" class="cls-4" points="16 31 12.79 32.98 9.42 30.9 9.38 31.91 12.77 33.98 16 32 16 31"/></svg>